<?xml version="1.0" encoding="UTF-8"?>
<svg id="Layer_1" data-name="Layer 1" xmlns="http://www.w3.org/2000/svg" viewBox="0 0 712.41 712.42">
  <defs>
    <style>
      .cls-1 {
        stroke: #ed1f24;
        stroke-width: 8.14px;
      }

      .cls-1, .cls-2 {
        fill: #f7901e;
      }

      .cls-3 {
        fill: #ffde2f;
      }

      .cls-4 {
        fill: #fff;
      }

      .cls-5 {
        fill: #fff2c4;
      }

      .cls-6 {
        fill: #ffd600;
      }

      .cls-7 {
        fill: #e2e2e1;
      }

      .cls-8 {
        fill: #fdb813;
      }

      .cls-9 {
        fill: #f15d22;
      }

      .cls-10 {
        fill: #dcddde;
      }

      .cls-11 {
        fill: #2484c6;
      }

      .cls-12 {
        fill: #1f0800;
      }

      .cls-13 {
        fill: #231f20;
      }

      .cls-14 {
        fill: #6c9dcb;
      }
    </style>
  </defs>
  <path class="cls-1" d="M708.34,356.21c0,194.48-157.66,352.13-352.13,352.13S4.07,550.69,4.07,356.21,161.72,4.07,356.2,4.07s352.13,157.66,352.13,352.14Z"/>
  <path class="cls-11" d="M681.19,356.21c0-179.48-145.5-325-324.99-325S31.21,176.73,31.21,356.21c0,99.94,45.15,189.3,116.11,248.91l23.91-55.65-31.23,17.35,40.25-30.54-30.2,71.16c6.7,5.5,13.66,10.69,20.79,15.66l73.95-58.36,6.13,98.93c8.28,2.83,16.69,5.4,25.26,7.58l42.87-99.57,28.39,109.3c2.92,.08,5.82,.23,8.76,.23,3.69,0,7.34-.16,11-.28l12.23-96.07,41.38,89.9c5.44-1.1,10.84-2.33,16.18-3.69l-5.51-87.59,7.43,87.06c139.42-36.59,242.28-163.43,242.28-314.34Z"/>
  <polygon class="cls-14" points="356.2 31.21 382.28 233.51 488.39 59.31 429.93 254.73 597.72 138.74 464.83 293.49 665.29 255.78 480.95 343.1 679.42 390.18 475.5 394.97 637.66 518.71 449.42 440.14 547.23 619.13 407.22 470.8 423.77 674.1 356.2 481.64 288.63 674.1 305.18 470.8 165.18 619.13 262.99 440.14 74.75 518.71 236.91 394.97 32.99 390.18 231.45 343.1 47.11 255.78 247.57 293.49 114.68 138.74 282.47 254.73 224.02 59.31 330.12 233.51 356.2 31.21"/>
  <path class="cls-9" d="M365.68,425.8s206.81-16.25,186.77-82.27c-14.91-49.13-40.7-14.25-17.86,5.62,0,0-71.85-9.16-38.16-44.77,33.68-35.61,74.86-16.68,86.34,21.37,11.48,38.06,19.04,220.52-194.06,299.67"/>
  <path class="cls-2" d="M392.15,442.54s203.74-24.32,164.28-111.5c-10.57-23.34-32.86-19.72-34.55-5.46-.73,6.2,1,15.92,12.53,23.35,0,0-59.6-13.19-32.58-41.76,27.02-28.56,64.16-16.06,74.71,17.44,5.79,18.39,8.15,51.96,.55,87.65-13.76,64.62-60.96,141.12-171.08,182.01"/>
  <path class="cls-9" d="M275.27,419.76s-150.28-76.98-114.56-120.3c26.59-32.24,35.05,2.05,11.66,9.82,0,0,56.85,15.64,42.7-21.67-14.15-37.31-51.02-35.99-71.56-11-20.55,25-83.37,159.72,51.93,285.92"/>
  <path class="cls-2" d="M250.14,424.06s-145.45-82.09-88.49-135.23c15.24-14.22,30.87-4.52,27.66,6.73-1.39,4.89-5.73,11.64-16.72,13.61,0,0,48.9,8.77,37.55-21.16-11.35-29.92-43.17-32.16-61.59-10.3-10.11,12.01-22.39,36.49-27.87,65.68-9.9,52.86,1.6,125.11,71.53,190.33"/>
  <path class="cls-6" d="M397.29,452.3s74.23-.42,137.9-46.38c0,0-24.46,29.1-65.36,51.87,0,0,74.64-27.84,95.3-69.16,0,0-.42,32.88-88.99,86.87,0,0,55.67-12.65,81.4-51.87,0,0-9.7,43.45-71.28,73.39,0,0,26.99,3.79,53.14-21.93,0,0-11.81,32.89-63.68,57.35,0,0,17.71,.85,27.83-5.9,0,0-33.31,27.41-78.02,49.34l-28.26-123.56Z"/>
  <path class="cls-6" d="M261.14,432.59s-63.95-21.03-106.12-78.45c0,0,13.01,31.93,41.98,62.98,0,0-56.68-44.82-63.01-86.25,0,0-8.8,28.51,52.61,99.78,0,0-44.53-26.43-55.81-67.45,0,0-3.73,40.2,41.08,83.19,0,0-24.35-4.23-39.76-33.73,0,0,1.03,31.69,39,67.25,0,0-15.52-4.2-22.38-12.85,0,0,21.13,32.94,53.61,64.32l58.8-98.79Z"/>
  <path class="cls-6" d="M363.37,682.03c-4.77-110.87,23.48-249.56,34.37-298.22l-47.04-19.72-89.4,15.97s-75.37,89.43-131.6,209.44c58.6,57.29,138.76,92.62,227.18,92.62,2.17,0,4.33-.03,6.49-.08Z"/>
  <path class="cls-8" d="M400.19,384.84l-2.45-1.03c-10.89,48.66-39.13,187.36-34.37,298.22,34.63-.67,67.92-6.76,99.07-17.45-34.22-77.22-70.09-183.94-62.25-279.74Z"/>
  <path class="cls-2" d="M360.14,226.62s-22.5-43.75,2.62-80.92c26.98-39.93,102.03,1.13,125.82-3.37,62.34-11.79,1.55-50.28-14.6-50.56,0,0,52.41,1.35,67.39,33.61,14.6,31.45,10.13,73.11-32.57,85.47-20.26,5.86-39.42,.73-48.9,6.49-18.71,11.37-15.37,34.99-17.94,58.12"/>
  <path class="cls-3" d="M363.88,216.48c0-4.5-12.92-58.98,21.91-74.71,25.16-11.36,65.16,21.35,115.71,11.23,12.32-2.46,20.22-5.61,23.03-17.97,.64-2.8,.93-8.79-1.07-13.8-3.33-8.3-10-15.83-10-15.83,0,0,44.16,30.41,21.19,77.39-15.16,31.02-62.35,10.11-80.32,18.53-17.97,8.42-24.72,8.42-23.59,57.29"/>
  <path class="cls-5" d="M379.6,218.17s-3.93-64.03,42.13-54.49c46.06,9.55,93.24,19.66,107.28-8.42,0,0,17.76,38.38-92.68,26.41-23.3-2.53-17.98,46.62-14.61,55.6"/>
  <g>
    <path class="cls-10" d="M316.54,222.78c3.47,5.16,5.49,11.37,5.49,18.05,0,17.91-14.52,32.43-32.43,32.43-8.07,0-15.45-2.96-21.13-7.84,5.82,8.67,15.71,14.37,26.94,14.37,17.91,0,32.42-14.52,32.42-32.42,0-9.83-4.38-18.63-11.29-24.58Z"/>
    <path class="cls-4" d="M322.03,240.83c0-6.68-2.02-12.88-5.49-18.05-5.67-4.88-13.05-7.84-21.13-7.84-17.9,0-32.43,14.51-32.43,32.42,0,6.68,2.03,12.89,5.49,18.05,5.68,4.89,13.06,7.84,21.13,7.84,17.91,0,32.43-14.52,32.43-32.43Z"/>
  </g>
  <path class="cls-13" d="M288.52,223.64c-2.04-1.55-4.59-2.47-7.35-2.47-6.76,0-12.25,5.48-12.25,12.24,0,2.38,.69,4.59,1.86,6.47,2.16,3.46,6,5.77,10.38,5.77,6.77,0,12.25-5.48,12.25-12.25,0-3.99-1.93-7.54-4.89-9.78Z"/>
  <g>
    <path class="cls-4" d="M285.61,226.45c.16,.26,.25,.55,.25,.87,0,.91-.74,1.65-1.65,1.65-.38,0-.72-.12-.99-.33,.29,.46,.81,.77,1.4,.77,.91,0,1.65-.73,1.65-1.64,0-.54-.26-1.02-.65-1.32Z"/>
    <path class="cls-4" d="M285.85,227.33c0-.32-.09-.61-.25-.87-.28-.21-.62-.34-.99-.34-.91,0-1.65,.74-1.65,1.66,0,.32,.09,.61,.25,.87,.28,.21,.62,.33,.99,.33,.91,0,1.65-.74,1.65-1.65Z"/>
  </g>
  <path class="cls-6" d="M262.69,384.43s-12.18-44.18,10.67-109.68c22.85-65.51,92.92-74.64,134.05-57.88,41.12,16.76,45.7,77.69,36.56,106.63-9.14,28.95-39.3,68.68-54.53,88.48"/>
  <path class="cls-8" d="M232.52,264.31s43.99,18.03,66.25,46.44l30.09-10.34-49.99-27.33-46.34-8.77Z"/>
  <path class="cls-7" d="M369.41,234.56c3.46,5.17,5.49,11.37,5.49,18.06,0,17.9-14.52,32.42-32.42,32.42-8.08,0-15.45-2.96-21.13-7.85,5.82,8.67,15.72,14.38,26.94,14.38,17.91,0,32.43-14.51,32.43-32.42,0-9.83-4.39-18.64-11.3-24.59Z"/>
  <path class="cls-4" d="M374.89,252.61c0-6.69-2.02-12.89-5.49-18.06-5.67-4.87-13.05-7.84-21.13-7.84-17.91,0-32.42,14.52-32.42,32.43,0,6.67,2.02,12.88,5.49,18.04,5.68,4.89,13.05,7.85,21.13,7.85,17.91,0,32.42-14.53,32.42-32.42Z"/>
  <path class="cls-13" d="M346.34,239.85c-2.45-1.84-5.5-2.96-8.8-2.96-8.1,0-14.67,6.56-14.67,14.67,0,2.85,.83,5.5,2.23,7.75,2.59,4.15,7.18,6.92,12.44,6.92,8.1,0,14.66-6.57,14.66-14.67,0-4.79-2.3-9.03-5.86-11.71Z"/>
  <g>
    <path class="cls-4" d="M342.84,243.23c.19,.31,.3,.66,.3,1.04,0,1.09-.89,1.98-1.98,1.98-.44,0-.85-.15-1.18-.4,.34,.56,.97,.93,1.68,.93,1.08,0,1.97-.89,1.97-1.97,0-.65-.31-1.22-.79-1.58Z"/>
    <path class="cls-4" d="M343.15,244.26c0-.38-.12-.73-.3-1.04-.33-.25-.74-.4-1.18-.4-1.1,0-1.98,.89-1.98,1.98,0,.39,.11,.74,.3,1.04,.33,.25,.74,.4,1.18,.4,1.1,0,1.98-.89,1.98-1.98Z"/>
  </g>
  <path class="cls-8" d="M288.23,283.75c23.36,17.19,36.16,13.41,36.16,13.41-8.13-12.19-18-34.7-16.28-40.19-.02-.18-.04-.34-.07-.51,0,0-40.09-1.36-78.41,8.22,9.81-.39,35.24,1.88,58.6,19.08Z"/>
  <path class="cls-2" d="M330.08,301.22s-19.43-21.86-21.97-44.26c-1.72,5.49,7.15,26.89,15.27,39.08,0,0-7.51-7.85-43.99-20.91-24.5-8.77-36.71-10.85-46.52-10.46,0,0,19.11,2.88,41.83,10.82,23.37,8.16,28.96,15.57,55.37,25.73Z"/>
  <path class="cls-12" d="M299.9,262.59c0,2.06-1.06,3.74-2.37,3.74s-2.38-1.67-2.38-3.74,1.07-3.74,2.38-3.74,2.37,1.67,2.37,3.74Z"/>
  <polygon class="cls-5" points="261.45 379.09 255.72 410.33 290.6 391.59 293.2 418.13 318.19 398.88 320.79 440.51 342.13 406.16 354.62 434.79 368.68 405.64 385.85 439.47 398.86 399.92 386.37 448.32 368.68 415.53 353.06 446.24 341.61 416.05 317.14 449.37 315.06 408.24 289.04 427.5 286.95 399.4 249.48 416.57 261.45 379.09"/>
  <polygon class="cls-4" points="237.15 411.37 221.89 453.01 263.14 436.77 249.65 475.91 294.07 449.53 301.01 499.5 335.01 462.02 352.36 509.91 371.1 466.2 389.84 514.77 402.34 466.89 389.84 526.57 371.1 479.38 350.97 521.02 333.63 469.66 298.23 509.22 290.6 455.78 241.32 483.54 255.9 445.37 214.25 461.34 237.15 411.37"/>
  <polygon class="cls-5" points="195.99 470.55 179.05 509.81 222.94 478.62 199.07 545.24 271.46 497.49 277.23 589.89 325.36 517.13 354.62 600.29 371.18 526.37 405.83 596.82 411.6 515.97 408.52 604.9 372.72 543.69 353.46 617.23 323.82 526.75 273.76 606.45 269.53 502.88 190.99 557.17 217.94 484.4 174.05 518.66 195.99 470.55"/>
  <path class="cls-4" d="M180.25,536.29l-40.25,30.54,31.23-17.35-23.91,55.65c.92,.76,1.81,1.57,2.73,2.32l30.2-71.16Z"/>
  <path class="cls-4" d="M244.79,564.74l-73.95,58.36c1.49,1.04,2.97,2.11,4.48,3.13l66-49.7,5.08,85.6c1.5,.54,3.02,1.03,4.52,1.54l-6.13-98.93Z"/>
  <path class="cls-4" d="M319.05,571.68l-42.87,99.57c1.84,.46,3.72,.85,5.58,1.28l36.59-80.73,24.43,89.05c1.54,.07,3.1,.09,4.65,.12l-28.39-109.3Z"/>
  <path class="cls-4" d="M436.99,671.07c.64-.17,1.28-.36,1.92-.52l-7.43-87.06,5.51,87.59Z"/>
  <path class="cls-4" d="M379.43,584.86l-12.23,96.07c1.58-.06,3.18-.05,4.76-.12l10.94-70.26,33.28,65.04c1.54-.29,3.1-.52,4.63-.82l-41.38-89.9Z"/>
  <path class="cls-9" d="M289.24,205.5s27.89-8.32,31.37,7.91c1.63,7.63,4.37,5.73,6.55,5.73,0,0-6.92,7.84-12.28-1.09-4.1-6.82-1.22-13.43-9.41-13.7-8.18-.28-16.24,1.16-16.24,1.16Z"/>
  <path class="cls-9" d="M338.23,209.21s1.55,4.66,5.71,4.76c9.38,.25,26.42-17.7,35.42-13.47,5.82,2.74,12.28,11.81,12.68,14.52,0,0-1.63-11.97-13.22-17.75-11.59-5.79-22.26,10.97-32.59,9.09-10.33-1.89-8,2.84-8,2.84Z"/>
</svg>